<?xml version="1.0" standalone="no"?>
<!DOCTYPE svg PUBLIC "-//W3C//DTD SVG 20010904//EN"
 "http://www.w3.org/TR/2001/REC-SVG-20010904/DTD/svg10.dtd">
<svg version="1.0" xmlns="http://www.w3.org/2000/svg"
 width="834.000000pt" height="834.000000pt" viewBox="0 0 834.000000 834.000000"
 preserveAspectRatio="xMidYMid meet">
<metadata>
Created by potrace 1.14, written by Peter Selinger 2001-2017
</metadata>
<g transform="translate(0.000000,834.000000) scale(0.100000,-0.100000)"
fill="#000000" stroke="none">
<path d="M5056 7788 c-176 -39 -198 -302 -31 -366 76 -30 145 -19 201 30 156
137 32 381 -170 336z"/>
<path d="M7268 7762 c-193 -98 -125 -392 91 -394 88 0 159 44 194 121 82 184
-105 364 -285 273z"/>
<path d="M2803 7555 c-180 -90 -132 -361 68 -379 84 -7 152 27 193 97 45 77
39 165 -15 230 -61 75 -159 95 -246 52z"/>
<path d="M4633 7560 c-74 -16 -117 -67 -119 -144 -2 -48 12 -82 51 -122 31
-32 112 -39 166 -14 69 31 101 142 60 207 -35 56 -99 85 -158 73z"/>
<path d="M5560 7520 c-128 -68 -154 -229 -52 -325 158 -150 405 22 324 227
-39 96 -180 148 -272 98z"/>
<path d="M3343 7334 c-160 -79 -170 -311 -18 -399 97 -56 196 -47 278 25 99
87 98 254 -1 341 -48 42 -82 55 -150 58 -44 1 -69 -4 -109 -25z"/>
<path d="M2402 7239 c-95 -18 -146 -78 -147 -174 0 -103 62 -171 162 -179 106
-9 193 69 193 174 0 116 -96 199 -208 179z"/>
<path d="M4297 7190 c-67 -53 -51 -152 29 -179 35 -12 47 -12 73 -1 106 43 75
200 -39 200 -22 0 -48 -8 -63 -20z"/>
<path d="M7025 7202 c-92 -19 -137 -144 -79 -220 48 -62 133 -76 196 -31 72
52 70 184 -4 228 -27 17 -85 29 -113 23z"/>
<path d="M6057 7153 c-52 -18 -116 -73 -144 -125 -12 -23 -17 -56 -18 -109 0
-67 3 -81 30 -124 97 -157 324 -145 422 23 24 40 28 58 27 117 -1 74 -23 126
-75 174 -57 53 -161 72 -242 44z"/>
<path d="M3872 6971 c-115 -39 -187 -141 -186 -266 0 -115 52 -204 148 -252
193 -98 416 38 416 254 0 191 -193 326 -378 264z"/>
<path d="M2121 6814 c-41 -17 -55 -32 -69 -73 -25 -71 23 -149 96 -155 69 -5
116 30 132 99 19 86 -76 164 -159 129z"/>
<path d="M6700 6750 c-124 -25 -210 -127 -210 -250 0 -79 15 -121 60 -173 154
-175 436 -88 457 142 16 175 -137 315 -307 281z"/>
<path d="M4407 6485 c-115 -40 -176 -159 -141 -276 47 -156 237 -211 361 -104
86 74 102 203 36 298 -53 77 -167 113 -256 82z"/>
<path d="M3324 6449 c-48 -14 -101 -79 -109 -133 -9 -57 -1 -92 31 -134 114
-149 353 -34 305 146 -27 101 -122 152 -227 121z"/>
<path d="M7117 6336 c-137 -69 -88 -277 67 -280 109 -1 181 111 136 212 -36
79 -123 109 -203 68z"/>
<path d="M2039 6318 c-1 -7 0 -17 1 -23 1 -5 4 -969 7 -2142 l4 -2131 -73 28
c-86 33 -133 42 -242 42 -80 0 -107 -3 -196 -23 -200 -43 -432 -177 -578 -333
-134 -144 -223 -317 -247 -481 -7 -52 -8 -244 -1 -281 3 -12 7 -37 10 -57 17
-105 83 -219 162 -280 78 -59 162 -81 324 -81 74 -1 149 2 165 6 17 4 44 10
60 13 48 10 113 33 193 70 311 144 568 453 610 735 4 30 8 1120 7 2423 l0
2367 -95 76 c-114 91 -110 88 -111 72z"/>
<path d="M2709 6277 c-100 -38 -159 -126 -155 -234 3 -99 49 -167 144 -211
127 -58 279 12 319 147 34 118 -14 233 -120 288 -42 21 -143 27 -188 10z"/>
<path d="M6306 6248 c-14 -13 -27 -35 -30 -49 -8 -51 39 -109 90 -109 29 0 71
30 83 59 24 58 -18 121 -80 121 -25 0 -46 -8 -63 -22z"/>
<path d="M5021 6106 c-68 -24 -131 -112 -131 -182 0 -38 21 -94 47 -124 89
-107 264 -88 323 35 46 95 9 214 -82 261 -38 19 -116 24 -157 10z"/>
<path d="M7464 6078 c-23 -11 -54 -67 -50 -89 13 -66 39 -95 92 -105 39 -7 89
20 107 58 33 71 -13 149 -87 147 -23 0 -50 -5 -62 -11z"/>
<path d="M5998 6045 c-128 -87 -2 -277 132 -198 78 46 68 174 -15 209 -49 20
-75 18 -117 -11z"/>
<path d="M5625 5885 c-99 -35 -128 -165 -54 -241 29 -30 43 -37 105 -48 11 -2
39 4 61 14 106 47 123 183 31 253 -43 33 -91 40 -143 22z"/>
</g>
</svg>
