<?xml version="1.0" encoding="utf-8"?>
<!-- Generator: Adobe Illustrator 26.0.3, SVG Export Plug-In . SVG Version: 6.00 Build 0)  -->
<svg version="1.1" id="Layer_1" xmlns="http://www.w3.org/2000/svg" xmlns:xlink="http://www.w3.org/1999/xlink" x="0px" y="0px"
	 viewBox="0 0 499.9 437" style="enable-background:new 0 0 499.9 437;" xml:space="preserve">
<style type="text/css">
	.st0{fill:none;stroke:#000000;stroke-miterlimit:10;}
	.st1{font-family:'ArialMT';}
	.st2{font-size:12px;}
	.st3{fill:none;stroke:#000000;stroke-miterlimit:10;stroke-dasharray:3.0624,3.0624;}
</style>
<g>
	<g>
		<line class="st0" x1="187.5" y1="68.5" x2="254.8" y2="68.5"/>
		<g>
			<polygon points="252,72.2 253.6,68.5 252,64.8 260.8,68.5 			"/>
		</g>
	</g>
</g>
<g>
	<g>
		<path class="st0" d="M157.2,90.6H136c-4.4,0-7.9-3.5-7.9-7.9V54.3c0-4.4,3.5-7.9,7.9-7.9h21.2c4.4,0,7.9,3.5,7.9,7.9v28.4
			C165.1,87.1,161.6,90.6,157.2,90.6z"/>
		<line class="st0" x1="134.4" y1="57.2" x2="157.9" y2="57.2"/>
		<line class="st0" x1="134.4" y1="64.2" x2="157.9" y2="63.9"/>
		<line class="st0" x1="134.4" y1="71" x2="157.9" y2="70.8"/>
	</g>
	<text transform="matrix(1 0 0 1 134.9178 108.8504)" class="st1 st2">1.1.0</text>
</g>
<text transform="matrix(1 0 0 1 35.2581 68.0859)" class="st1 st2">original</text>
<text transform="matrix(1 0 0 1 35.8581 82.4859)" class="st1 st2">(en-US)</text>
<g>
	<g>
		<path class="st0" d="M312.3,90.6h-21.2c-4.4,0-7.9-3.5-7.9-7.9V54.3c0-4.4,3.5-7.9,7.9-7.9h21.2c4.4,0,7.9,3.5,7.9,7.9v28.4
			C320.2,87.1,316.6,90.6,312.3,90.6z"/>
		<line class="st0" x1="289.5" y1="57.2" x2="312.9" y2="57.2"/>
		<line class="st0" x1="289.5" y1="64.2" x2="312.9" y2="63.9"/>
		<line class="st0" x1="289.5" y1="71" x2="312.9" y2="70.8"/>
	</g>
	<text transform="matrix(1 0 0 1 289.9645 108.8504)" class="st1 st2">1.2.0</text>
</g>
<text transform="matrix(1 0 0 1 27.4462 311.5104)" class="st1 st2">translation</text>
<text transform="matrix(1 0 0 1 27.8462 325.9104)" class="st1 st2">(e.g., fr-FR)</text>
<g>
	<g>
		<path class="st0" d="M156.7,256.8h-21.2c-4.4,0-7.9-3.5-7.9-7.9v-28.4c0-4.4,3.5-7.9,7.9-7.9h21.2c4.4,0,7.9,3.5,7.9,7.9v28.4
			C164.6,253.3,161.1,256.8,156.7,256.8z"/>
		<line class="st0" x1="134" y1="223.4" x2="157.4" y2="223.4"/>
		<line class="st0" x1="134" y1="230.3" x2="157.4" y2="230.1"/>
		<line class="st0" x1="134" y1="237.2" x2="157.4" y2="236.9"/>
	</g>
	<text transform="matrix(1 0 0 1 134.4388 275.009)" class="st1 st2">1.1.0</text>
</g>
<g>
	<g>
		<line class="st0" x1="146.2" y1="133.4" x2="146.6" y2="185.5"/>
		<g>
			<polygon points="142.9,182.7 146.6,184.3 150.3,182.7 146.6,191.5 			"/>
		</g>
	</g>
</g>
<text transform="matrix(1 0 0 1 160.5834 165.9823)" class="st1 st2">translation</text>
<text transform="matrix(1 0 0 1 206.2306 57.1938)" class="st1 st2">update</text>
<g>
	<g>
		<path class="st0" d="M217.6,378.5h-21.2c-4.4,0-7.9-3.5-7.9-7.9v-28.4c0-4.4,3.5-7.9,7.9-7.9h21.2c4.4,0,7.9,3.5,7.9,7.9v28.4
			C225.5,374.9,222,378.5,217.6,378.5z"/>
		<line class="st0" x1="194.9" y1="345" x2="218.3" y2="345"/>
		<line class="st0" x1="194.9" y1="352" x2="218.3" y2="351.7"/>
		<line class="st0" x1="194.9" y1="358.8" x2="218.3" y2="358.6"/>
	</g>
	<text transform="matrix(1 0 0 1 195.3531 396.6814)" class="st1 st2">1.1.1</text>
</g>
<g>
	<g>
		<line class="st0" x1="168.1" y1="286.1" x2="184.7" y2="317.9"/>
		<g>
			<polygon points="180.2,317.1 184.2,316.8 186.7,313.7 187.5,323.2 			"/>
		</g>
	</g>
</g>
<text transform="matrix(1 0 0 1 160.7991 312.4916)" class="st1 st2">fix</text>
<g>
	<g>
		<path class="st0" d="M311.8,256.9h-21.2c-4.4,0-7.9-3.5-7.9-7.9v-28.4c0-4.4,3.5-7.9,7.9-7.9h21.2c4.4,0,7.9,3.5,7.9,7.9V249
			C319.7,253.4,316.1,256.9,311.8,256.9z"/>
		<line class="st0" x1="289" y1="223.5" x2="312.4" y2="223.5"/>
		<line class="st0" x1="289" y1="230.5" x2="312.4" y2="230.2"/>
		<line class="st0" x1="289" y1="237.3" x2="312.4" y2="237.1"/>
	</g>
	<text transform="matrix(1 0 0 1 289.4855 275.1409)" class="st1 st2">1.2.0</text>
</g>
<g>
	<g>
		<line class="st0" x1="301.2" y1="133.6" x2="301.6" y2="185.6"/>
		<g>
			<polygon points="297.9,182.9 301.6,184.4 305.3,182.8 301.7,191.6 			"/>
		</g>
	</g>
</g>
<text transform="matrix(1 0 0 1 315.6301 166.1142)" class="st1 st2">translation</text>
<g>
	<g>
		<line class="st0" x1="348.6" y1="69.5" x2="350.1" y2="69.5"/>
		<line class="st3" x1="353.2" y1="69.5" x2="412.9" y2="69.5"/>
		<line class="st0" x1="414.4" y1="69.5" x2="415.9" y2="69.5"/>
		<g>
			<polygon points="413.1,73.2 414.7,69.5 413.1,65.8 421.9,69.5 			"/>
		</g>
	</g>
</g>
<text transform="matrix(1 0 0 1 367.3175 58.1695)" class="st1 st2">update</text>
<rect x="113.8" y="28.6" class="st0" width="344.5" height="93.9"/>
<rect x="113.8" y="202.7" class="st0" width="344.5" height="210.5"/>
<g>
	<g>
		<path class="st0" d="M306.3,378.5h-21.2c-4.4,0-7.9-3.5-7.9-7.9v-28.4c0-4.4,3.5-7.9,7.9-7.9h21.2c4.4,0,7.9,3.5,7.9,7.9v28.4
			C314.2,374.9,310.7,378.5,306.3,378.5z"/>
		<line class="st0" x1="283.5" y1="345" x2="307" y2="345"/>
		<line class="st0" x1="283.5" y1="352" x2="307" y2="351.7"/>
		<line class="st0" x1="283.5" y1="358.8" x2="307" y2="358.6"/>
	</g>
	<text transform="matrix(1 0 0 1 284.0065 396.6814)" class="st1 st2">1.1.2</text>
</g>
<g>
	<g>
		<line class="st0" x1="237.2" y1="362" x2="258.4" y2="362"/>
		<g>
			<polygon points="255.6,365.7 257.2,362 255.6,358.3 264.4,362 			"/>
		</g>
	</g>
</g>
<text transform="matrix(1 0 0 1 244.8758 350.6985)" class="st1 st2">fix</text>
</svg>
